<!DOCTYPE svg PUBLIC "-//W3C//DTD SVG 1.1//EN" "http://www.w3.org/Graphics/SVG/1.1/DTD/svg11.dtd">
<!-- Uploaded to: SVG Repo, www.svgrepo.com, Transformed by: SVG Repo Mixer Tools -->
<svg fill="#000000" height="800px" width="800px" version="1.1" id="XMLID_106_" xmlns="http://www.w3.org/2000/svg" xmlns:xlink="http://www.w3.org/1999/xlink" viewBox="0 0 24 24" xml:space="preserve">
<g id="SVGRepo_bgCarrier" stroke-width="0"/>
<g id="SVGRepo_tracerCarrier" stroke-linecap="round" stroke-linejoin="round"/>
<g id="SVGRepo_iconCarrier"> <g id="grid"> <g> <path d="M23,24H0V1h23V24z M16,22h5v-5h-5V22z M9,22h5v-5H9V22z M2,22h5v-5H2V22z M16,15h5v-5h-5V15z M9,15h5v-5H9V15z M2,15h5v-5 H2V15z M16,8h5V3h-5V8z M9,8h5V3H9V8z M2,8h5V3H2V8z"/> </g> </g> </g>
</svg>